<?xml version="1.0" standalone="no"?><!-- Generator: Gravit.io --><svg xmlns="http://www.w3.org/2000/svg" xmlns:xlink="http://www.w3.org/1999/xlink" style="isolation:isolate" viewBox="0 0 457.597 559.286" width="457.597" height="559.286"><path d=" M 163.168 0 C 153.536 0 145.737 11.22 145.737 20.853 L 145.737 29.108 C 145.737 35.922 149.667 41.785 155.349 44.638 C 155.263 45.767 155.185 46.908 155.185 48.06 L 155.185 212.113 C 152.606 216.971 150.094 222.031 147.365 227.046 L 6.384 482.065 C -16.319 523.8 26.884 559.286 52.326 559.286 L 405.094 559.286 C 430.535 559.286 474.202 524.649 451.037 482.065 L 310.066 227.046 C 307.338 222.031 304.825 216.971 302.246 212.113 L 302.246 48.06 C 302.246 46.908 302.168 45.768 302.083 44.638 C 307.764 41.784 311.695 35.922 311.695 29.108 L 311.695 20.853 C 311.695 11.221 303.95 0 294.318 0 L 163.168 0 Z " fill="rgb(208,162,45)"/><g id="g3213"><rect x="172.946" y="35.28" width="111.613" height="204.528" transform="matrix(1,0,0,1,0,0)" fill="rgb(255,255,255)"/><path d=" M 201.618 206.114 L 256.02 206.114 C 277.665 206.114 284.746 226.284 295.089 245.405 L 417.947 472.541 C 442.761 518.415 400.521 538.595 378.876 538.595 L 78.757 538.595 C 57.112 538.595 17.576 513.417 39.688 472.541 L 162.545 245.405 C 172.889 226.284 179.971 206.114 201.614 206.114 L 201.618 206.114 Z " fill="rgb(234,191,62)"/><path d="M 163.041 30.363 L 163.041 22.26 C 163.041 18.136 166.389 14.788 170.513 14.788 L 286.816 14.788 C 290.94 14.788 294.288 18.136 294.288 22.26 L 294.288 30.363 C 294.288 34.487 290.94 37.835 286.816 37.835 L 170.513 37.835 C 166.389 37.835 163.041 34.487 163.041 30.363 Z" style="stroke:none;fill:#FFFFFF;stroke-miterlimit:10;"/></g><path d=" M 300.469 278.859 L 398.525 465.259 C 419.992 506.065 383.12 523.654 363.985 523.654 L 98.663 523.654 C 79.528 523.654 44.496 501.354 64.123 465.259 L 160.258 288.459 C 245.25 321.798 276.162 229.131 300.472 278.86 L 300.469 278.859 Z " fill="rgb(253,216,53)"/><path d=" M 177.451 414.362 C 177.451 396.879 191.645 382.686 209.127 382.686 C 226.61 382.686 240.803 396.879 240.803 414.362 C 240.803 431.844 226.61 446.038 209.127 446.038 C 191.645 446.038 177.451 431.844 177.451 414.362 Z " fill="rgb(255,255,255)"/><path d=" M 158.336 376.472 C 158.336 366.141 166.724 357.754 177.055 357.754 C 187.385 357.754 195.773 366.141 195.773 376.472 C 195.773 386.803 187.385 395.19 177.055 395.19 C 166.724 395.19 158.336 386.803 158.336 376.472 Z " fill="rgb(255,255,255)"/><path d=" M 247.582 340.023 C 247.582 333.93 252.528 328.984 258.621 328.984 C 264.714 328.984 269.66 333.93 269.66 340.023 C 269.66 346.116 264.714 351.062 258.621 351.062 C 252.528 351.062 247.582 346.116 247.582 340.023 Z " fill="rgb(255,255,255)"/><path d="M 256.096 39.531 L 258.294 39.531 C 262.126 39.531 265.237 42.642 265.237 46.474 L 265.237 163.056 C 265.237 166.889 262.126 170 258.294 170 L 256.096 170 C 252.263 170 249.152 166.889 249.152 163.056 L 249.152 46.474 C 249.152 42.642 252.263 39.531 256.096 39.531 Z" style="stroke:none;fill:#D0A22D;stroke-miterlimit:10;"/></svg>