<?xml version="1.0" standalone="no"?>
<!DOCTYPE svg PUBLIC "-//W3C//DTD SVG 20010904//EN"
 "http://www.w3.org/TR/2001/REC-SVG-20010904/DTD/svg10.dtd">
<svg version="1.0" xmlns="http://www.w3.org/2000/svg"
 width="1118.000000pt" height="1118.000000pt" viewBox="0 0 1118.000000 1118.000000"
 preserveAspectRatio="xMidYMid meet">
<metadata>
Created by potrace 1.11, written by Peter Selinger 2001-2013
</metadata>
<g transform="translate(0.000000,1118.000000) scale(0.100000,-0.100000)"
fill="#000000" stroke="none">
<path d="M4183 11159 c-104 -40 -201 -159 -235 -288 -22 -87 -24 -297 -3 -368
21 -69 70 -141 128 -183 l47 -35 0 -1672 0 -1672 -86 -163 c-48 -90 -136 -253
-197 -363 -272 -494 -373 -676 -417 -755 -26 -47 -119 -215 -207 -375 -171
-310 -407 -737 -613 -1110 -70 -126 -201 -363 -290 -525 -90 -162 -220 -398
-290 -525 -70 -126 -223 -403 -340 -615 -117 -212 -285 -515 -373 -675 -261
-470 -282 -528 -281 -765 1 -174 19 -253 93 -405 144 -295 442 -546 756 -637
l80 -23 3630 0 3630 0 85 23 c316 83 626 343 771 645 65 136 82 219 83 387 0
248 -16 289 -354 900 -117 212 -248 448 -290 525 -42 77 -208 377 -369 668
-160 290 -421 762 -580 1050 -158 287 -527 954 -818 1482 -292 528 -565 1026
-607 1106 l-76 145 0 1674 0 1674 48 38 c52 39 101 108 123 173 10 27 14 88
13 190 0 129 -3 159 -23 214 -44 126 -130 224 -231 262 -48 18 -99 19 -1403
18 -1327 0 -1353 0 -1404 -20z m2644 -299 c56 -34 68 -70 68 -205 0 -97 -4
-126 -18 -153 -23 -42 -67 -69 -128 -77 l-49 -7 0 -1871 0 -1871 -55 79 c-105
150 -211 237 -339 278 -70 22 -76 22 -716 22 -597 0 -649 -1 -705 -18 -131
-40 -241 -128 -341 -271 l-59 -85 -3 1868 -2 1869 -55 7 c-60 7 -105 37 -130
86 -20 38 -21 249 -1 287 16 30 53 66 76 75 8 3 557 6 1220 6 1178 1 1206 0
1237 -19z m-539 -6279 c83 -42 128 -123 120 -217 -19 -229 -333 -280 -429 -69
-45 98 1 233 96 282 72 38 144 39 213 4z m-1566 -589 c75 -37 139 -101 178
-178 22 -43 25 -61 25 -159 0 -107 -4 -124 -43 -197 -2 -4 20 4 48 18 171 83
406 73 580 -23 79 -44 195 -158 237 -233 59 -104 83 -196 83 -317 0 -131 -16
-197 -71 -305 -73 -140 -217 -261 -369 -309 -89 -29 -244 -36 -332 -15 -213
50 -397 216 -466 423 -22 67 -26 96 -26 198 0 157 25 245 107 364 26 38 27 42
9 37 -140 -45 -290 -9 -392 94 -69 68 -102 143 -108 241 -6 98 15 169 71 245
81 109 176 155 317 151 74 -2 95 -7 152 -35z"/>
<path d="M6073 10375 c-18 -8 -42 -29 -53 -47 -20 -33 -20 -47 -20 -1242 0
-1194 0 -1209 20 -1241 29 -47 80 -68 151 -63 68 5 105 27 131 79 17 32 18
111 18 1224 0 1328 5 1233 -69 1282 -40 27 -126 31 -178 8z"/>
</g>
</svg>
